<svg width="586" height="516" viewBox="0 0 586 516" fill="none" xmlns="http://www.w3.org/2000/svg">
<path fill-rule="evenodd" clip-rule="evenodd" d="M343.97 515.853C478.568 515.853 497.648 455.973 518.057 444.969C538.465 433.966 525.777 411.883 539.162 395.228C560.542 368.623 573.5 382.334 580.576 347.82C587.652 313.307 574.788 303.543 574.788 272.729C574.788 210.993 604.362 181.769 566.595 149.467C528.828 117.166 465.76 120.977 403.384 120.977C287.608 120.977 218.249 -37.7336 63.8314 9.88143C10.6159 26.2906 16.4973 48.6525 28.1903 127.679C33.268 161.995 -5.07023 205.626 1.58162 244.624C13.7304 315.849 45.8161 306.187 106.354 354.276C116.51 362.344 131.323 362.26 142.395 370.535C160.958 384.407 162.151 405.977 196.854 420.526C252.811 443.986 248.064 515.853 343.97 515.853Z" fill="#7350F2"/>
<ellipse cx="86.6567" cy="332" rx="34.0298" ry="32" fill="white"/>
<path fill-rule="evenodd" clip-rule="evenodd" d="M73.3115 217.906C67.5102 203.418 72.5777 194.738 75.8259 183.406C78.5392 173.941 99.7575 158.565 109.523 174.597C112.396 179.314 111.243 183.772 117.522 187.917C132.722 197.952 124.43 177.134 124.995 171.871C125.271 169.304 123.102 163.383 123.909 160.906C124.757 158.306 129.273 154.613 129.273 149.224C129.273 143.836 120.087 141.76 117.522 140.436C94.7344 128.671 80.2419 109.019 87.4641 99.0456C97.5266 85.15 136.962 107.013 148.812 109.019C148.965 109.045 151.081 97.9976 152.81 95.468C156.268 90.4069 160.09 85.4941 164.65 81.3971C166.692 79.562 169.46 78.4291 172.182 78.062C180.325 76.9631 188.656 76.0621 196.813 77.0573C199.695 77.409 216.86 57.5432 223.553 51.1351C274.903 1.97027 377.84 61.8827 321.73 143.295C311.417 158.258 298.23 163.016 296.526 168.305C292.743 180.052 316.559 178.507 326.647 179.762C343.881 181.906 352.376 190.759 341.677 205.933C335.012 215.386 295.912 214.904 278.785 208.068C272.428 205.531 264.572 194.437 258.564 203.538C254.424 209.808 238.283 223.11 220.969 230.635C213.154 234.032 204.252 231.985 197.583 235.018C188.196 239.288 160.483 257.215 148.812 257.21C137.057 257.206 121.846 243.06 120.087 242.132C117.404 240.718 96.6548 236.664 86.4044 220.846C83.3046 216.063 75.435 223.21 73.3115 217.906Z" fill="white"/>
<ellipse cx="272.893" cy="133.917" rx="3.60483" ry="3.55329" fill="#F24182"/>
<circle cx="246.5" cy="126.5" r="3.5" fill="#F24182"/>
<circle cx="501.5" cy="123.5" r="47.5" fill="white"/>
<ellipse cx="352.975" cy="392.971" rx="138.025" ry="117.971" fill="white"/>
<path fill-rule="evenodd" clip-rule="evenodd" d="M235.962 457.295L237.511 458.417C234.014 461.554 228.755 457.653 225.806 453.997C221.064 448.117 216.252 441.869 214.809 434.455C213.988 430.236 214.316 425.889 214.648 421.604L215.986 404.326C216.578 396.669 217.173 388.999 218.498 381.435C222.085 360.964 231.115 341.471 244.41 325.497L244.543 325.337C246.891 322.517 249.455 319.438 249.41 315.782C249.314 308.048 253.768 300.82 259.617 295.757C265.465 290.694 272.626 287.445 279.677 284.265C282.871 282.824 287.042 281.533 289.518 284.013C294.61 289.114 303.108 285.865 309.834 283.274C318.092 280.093 326.913 278.379 335.761 278.236C336.018 278.232 336.278 278.229 336.539 278.225L336.539 278.225C341.852 278.149 347.831 278.064 351.072 273.948C353.136 271.327 357.082 271.479 360.394 271.875L383.173 274.6C384.914 274.808 387 275.283 387.549 276.948C389.02 281.413 394.211 283.234 398.711 284.591C414.711 289.415 430.35 295.965 443.933 305.699C457.516 315.433 468.996 328.528 475.088 344.089C465.184 330.551 455.023 316.759 441.277 307.145C437.344 304.394 433.16 302.018 428.913 299.78C418.89 294.496 408.459 289.942 397.622 286.634C347.316 271.279 289.124 285.52 251.594 322.371C246.153 327.714 241.051 333.599 237.964 340.573L242.041 341.838C235.58 344.726 230.78 351.053 229.742 358.054C232.342 353.601 236.048 349.798 240.434 347.084C239.179 351.277 235.914 354.647 232.714 357.95C228.635 362.159 224.661 366.26 225.082 371.823C227.019 366.741 231.897 362.904 237.293 362.221C228.735 370.582 219.551 380.396 219.824 392.358C222.946 385.45 228.246 379.547 234.779 375.703L225.374 388.341C221.818 393.121 218.072 398.582 218.885 404.484C221.979 398.931 226.403 394.125 231.681 390.583C229.14 396.363 225.511 401.663 221.041 406.123C225.291 405.61 229.384 403.849 232.68 401.116C231.298 403.045 230.053 405.221 230.007 407.594C229.96 409.966 231.497 412.511 233.845 412.853C234.556 411.263 236.785 410.592 238.255 411.525C233.799 415.86 233.753 423.893 238.159 428.279C238.551 426.218 240.29 424.48 242.351 424.09C239.065 429.836 238.474 437.052 240.782 443.256C241.48 439.741 243.431 436.488 246.202 434.216C244.604 442.554 241.072 450.515 235.962 457.295ZM234.015 454.639C236.797 454.61 238.528 451.498 238.818 448.731C239.165 445.42 238.343 442.111 237.527 438.884L232.687 419.742C231.776 420.03 231.67 421.021 231.56 422.059C231.465 422.945 231.367 423.865 230.761 424.412C229.536 422.888 229.397 420.582 230.43 418.922C231.473 417.246 230.79 414.9 229.311 413.594C227.831 412.288 225.773 411.844 223.8 411.779C222.734 411.744 221.6 411.826 220.728 412.44C219.855 413.054 219.396 414.359 220.016 415.227C221.861 417.811 223.248 420.721 224.096 423.781C224.159 424.01 224.22 424.241 224.282 424.474C224.703 426.063 225.137 427.696 226.299 428.829C227.197 429.704 227.426 431.04 227.609 432.281L229.088 442.34C229.357 444.171 229.626 446.038 229.318 447.863C229.01 449.687 228.024 451.496 226.369 452.325L231.654 454.122C232.42 454.383 233.205 454.647 234.015 454.639ZM291.619 289.771C290.578 289.991 289.705 289.076 288.959 288.295L288.874 288.205C288.109 287.406 286.796 286.71 285.991 287.467C276.611 296.292 265.937 303.738 254.417 309.494C252.326 310.538 252.045 313.355 252.044 315.693C252.043 316.473 252.791 317.569 253.278 316.959C255.653 313.983 258.742 311.672 261.795 309.396C270.386 302.991 279.079 296.527 288.927 292.304C290.122 291.791 291.521 291.067 291.619 289.771ZM385.893 279.846C385.361 278.599 383.85 278.149 382.517 277.898C378.887 277.214 375.192 276.904 371.5 276.595C366.43 276.169 361.367 275.745 356.488 274.353C354.925 273.907 353.589 275.49 352.732 276.872C355.303 276.604 357.89 276.493 360.475 276.541C364.973 276.624 369.448 277.184 373.912 277.744C376.181 278.028 378.465 278.316 380.641 279.02C380.894 279.102 381.149 279.189 381.406 279.277L381.406 279.277C382.892 279.787 384.427 280.315 385.893 279.846ZM337.871 299.02C338.899 299.255 339.878 300.023 340.032 301.066C340.185 302.107 339.474 303.121 338.565 303.651C337.657 304.181 336.583 304.33 335.54 304.468L332.401 304.883C332.086 304.925 331.762 304.97 331.489 305.132C330.7 305.599 330.754 306.865 331.399 307.517C332.045 308.168 333.034 308.33 333.951 308.328C338.221 308.32 342.264 305.247 343.568 301.181C343.878 300.216 344.042 299.142 343.658 298.203C343.463 297.727 343.138 297.314 342.777 296.948C341.097 295.246 338.595 294.496 336.21 294.664C333.825 294.833 331.556 295.849 329.615 297.245C328.685 297.915 327.799 298.698 327.27 299.715C326.742 300.732 326.628 302.024 327.22 303.005C327.445 303.38 327.794 303.711 328.225 303.782C328.656 303.852 329.154 303.574 329.208 303.14C329.357 301.934 330.237 300.915 331.286 300.302C332.335 299.689 333.544 299.42 334.736 299.181C335.77 298.974 336.843 298.785 337.871 299.02ZM253.717 358.668C254.89 351.728 260.496 346.086 267.031 343.471C270.632 342.03 274.753 341.399 278.375 342.787C279.269 343.129 280.134 343.602 280.778 344.31C281.383 344.976 281.764 345.815 282.051 346.667C283.891 352.125 282.024 358.436 278.071 362.624C274.118 366.813 268.362 369.01 262.618 369.422C260.777 369.554 258.801 369.48 257.281 368.434C255.761 367.388 255.007 365.064 256.177 363.638C256.73 363.664 257.029 364.158 257.334 364.663C257.485 364.914 257.638 365.167 257.825 365.368C258.463 366.055 259.518 366.104 260.454 366.065C264.528 365.893 268.663 364.884 271.978 362.511C275.293 360.139 277.676 356.264 277.606 352.187C277.583 350.874 277.298 349.53 276.554 348.448C275.332 346.671 273.023 345.869 270.871 346.011C268.72 346.153 266.703 347.107 264.871 348.244C262.46 349.74 260.232 351.621 258.721 354.022C257.21 356.424 256.471 359.392 257.11 362.157C256.545 363.175 254.867 362.972 254.173 362.036C253.479 361.1 253.523 359.817 253.717 358.668ZM291.23 415.869C288.25 417.787 285.779 420.788 285.319 424.301C284.947 427.144 285.9 429.975 286.839 432.684C287.572 434.799 288.329 436.958 289.725 438.707C292.246 441.866 296.42 443.173 300.41 443.814C301.497 443.989 303.145 443.498 302.758 442.468C298.545 442.391 294.402 440.438 291.66 437.239C288.919 434.04 287.624 429.646 288.193 425.471C288.312 424.593 288.513 423.719 288.881 422.913C289.628 421.282 291.019 420.028 292.525 419.055C295.767 416.96 299.714 415.979 303.56 416.311C307.267 416.631 310.971 418.256 313.235 421.21C315.498 424.164 316.038 428.522 314.04 431.663C313.716 432.173 313.479 433.076 314.074 433.182C317.289 431.45 319.074 427.63 318.894 423.982C318.714 420.334 316.787 416.92 314.141 414.403C312.677 413.011 310.943 411.835 308.979 411.362C306.39 410.738 303.681 411.382 301.106 412.059C297.678 412.961 294.21 413.952 291.23 415.869ZM437.589 420.4C426.812 416.377 415.102 414.877 403.66 416.055C398.862 416.549 394.048 417.528 389.735 419.687C381.596 423.76 375.777 432.145 374.809 441.195C373.841 450.244 377.754 459.671 384.847 465.374C387.537 467.536 390.59 469.155 393.647 470.777C395.734 471.884 397.823 472.992 399.799 474.274C400.364 474.814 399.093 475.352 398.35 475.112C391.438 472.881 384.726 469.488 379.796 464.154C373.798 457.666 370.872 448.452 372.029 439.692C373.186 430.932 378.403 422.794 385.88 418.085C391.794 414.361 398.865 412.792 405.849 412.54C412.834 412.288 419.798 413.286 426.704 414.356C431.018 415.024 436.076 416.306 437.589 420.4ZM324.198 433.903C323.709 432.782 321.742 432.489 321.382 433.659C319.096 441.098 311.837 446.723 304.063 447.079C302.306 447.16 300.547 446.996 298.796 446.827C295.025 446.462 291.136 446.031 287.834 444.174C283.085 441.504 280.227 436.022 280.194 430.574C280.16 425.126 282.744 419.832 286.668 416.052C286.123 414.527 283.785 415.264 282.624 416.392C276.188 422.647 275.084 433.444 279.6 441.199C284.115 448.955 293.578 453.302 302.498 452.316C311.418 451.33 319.471 445.358 323.618 437.399C324.183 436.314 324.688 435.024 324.198 433.903ZM268.34 471.573C266.887 477.145 266.749 483.056 267.94 488.69C268.475 491.217 268.533 492.609 268.544 492.87C268.545 492.9 268.546 492.915 268.547 492.915C268.547 492.915 268.548 492.9 268.549 492.87C268.561 492.609 268.624 491.211 269.171 488.68C270.39 483.036 270.1 477.073 268.34 471.573ZM276.06 474.943C273.995 479.27 274.251 484.624 276.719 488.735C277.273 489.658 277.694 490.409 278.004 490.963C278.421 491.708 278.639 492.096 278.715 492.07C278.797 492.042 278.709 491.52 278.526 490.428C278.453 489.99 278.364 489.46 278.264 488.833L276.06 474.943ZM281.872 480.469C280.996 483.231 281.641 486.426 283.52 488.632C285.438 490.886 286.065 491.608 285.48 488.707C284.884 485.746 283.644 482.915 281.872 480.469ZM450.079 449.044C447.444 459.625 439.025 467.642 430.862 474.871C431.235 475.675 432.441 475.387 433.213 474.952C441.482 470.299 448.172 462.714 451.225 453.731C454.277 444.748 453.518 434.426 448.7 426.253C448.295 425.567 447.78 424.837 446.998 424.684C446.217 424.531 445.316 425.437 445.776 426.088C450.407 432.647 452.02 441.252 450.079 449.044ZM331.206 353.509C331.186 351.835 331.209 350.023 332.22 348.689C333.612 346.852 336.252 346.659 338.557 346.627C339.585 346.612 340.626 346.599 341.627 346.837C343.758 347.344 345.455 348.917 346.967 350.501C347.302 350.852 347.659 351.284 347.576 351.762C347.473 352.355 346.731 352.627 346.141 352.506C345.749 352.425 345.398 352.23 345.046 352.035L345.045 352.035L345.045 352.035L345.045 352.035L345.045 352.035L345.045 352.035C344.868 351.937 344.69 351.838 344.507 351.754C342.388 350.782 339.898 351.848 337.995 353.194C337.696 353.406 337.373 353.678 337.365 354.044C337.358 354.412 337.673 354.697 337.97 354.915C340.542 356.799 343.835 357.671 347.002 357.308C347.76 357.221 348.649 356.943 348.846 356.206C348.922 355.919 348.893 355.58 348.864 355.253C348.816 354.706 348.77 354.191 349.23 354.001C349.47 353.902 349.742 353.973 349.99 354.046C351.705 354.544 353.709 355.346 354.041 357.1C354.137 357.607 354.069 358.135 353.907 358.625C353.435 360.059 352.119 361.179 350.628 361.416C349.966 361.521 349.291 361.464 348.623 361.407C346.878 361.257 345.132 361.107 343.403 360.828C340.228 360.317 337.124 359.371 334.204 358.026C333.191 357.559 332.138 356.984 331.624 355.994C331.234 355.241 331.215 354.357 331.206 353.509ZM396.404 312.233C395.384 309.476 392.919 307.3 390.056 306.629C389.17 306.422 388.17 306.371 387.419 306.884C386.667 307.398 386.409 308.649 387.125 309.21C387.82 309.754 387.4 311.034 386.552 311.275C385.703 311.517 384.79 310.941 384.366 310.167C383.943 309.394 383.897 308.474 383.892 307.592C383.886 306.415 383.993 305.101 384.863 304.308C385.194 304.005 385.607 303.81 386.017 303.627C387.711 302.869 389.585 302.227 391.396 302.634C393.121 303.022 394.497 304.296 395.7 305.592C396.687 306.654 397.62 307.767 398.495 308.923C399.266 309.942 400.007 311.029 400.297 312.274C400.586 313.519 400.337 314.963 399.375 315.805C398.434 316.628 396.986 316.699 395.844 316.19C394.834 315.74 393.973 314.751 394.048 313.649C394.123 312.546 395.477 311.632 396.404 312.233ZM405.509 389.763C408.04 389.69 410.398 387.741 410.944 385.269C411.277 383.766 410.867 381.978 409.557 381.17C408.6 380.579 407.396 380.622 406.274 380.694C404.72 380.794 403.107 380.93 401.757 381.705C400.407 382.481 399.403 384.089 399.826 385.588C400.514 388.024 402.979 389.835 405.509 389.763ZM405.834 386.111C405.345 386.243 404.648 386.117 404.603 385.612C404.585 385.402 404.698 385.204 404.827 385.037C405.546 384.106 406.916 383.744 408.001 384.199C407.624 385.123 406.798 385.852 405.834 386.111ZM407.142 348.665C406.729 347.714 407.528 346.605 408.498 346.241C409.275 345.949 410.119 345.979 410.957 346.01L410.957 346.01C411.166 346.017 411.373 346.025 411.579 346.027C412.616 346.04 413.761 345.867 414.434 345.078C414.671 344.8 414.832 344.391 414.651 344.073C414.462 343.741 414.016 343.684 413.635 343.664C410.993 343.527 407.873 343.608 406.35 345.771C406.023 346.237 405.221 346.079 404.915 345.6C404.609 345.121 404.679 344.492 404.854 343.951C405.477 342.012 407.268 340.602 409.224 340.037C411.181 339.472 413.281 339.65 415.267 340.1C415.937 340.251 416.632 340.451 417.121 340.933C417.509 341.315 417.726 341.839 417.868 342.365C418.544 344.879 417.545 347.76 415.457 349.316C413.369 350.873 410.323 351.007 408.106 349.64C407.711 349.396 407.326 349.091 407.142 348.665ZM398.086 393.104C399.313 394.574 400.766 395.911 402.528 396.659C406.091 398.172 410.646 396.775 412.747 393.524C413.513 392.341 413.855 390.535 412.723 389.695C410.91 393.505 405.652 395.187 401.965 393.137C401.258 392.744 400.616 392.242 400.032 391.683C397.38 389.144 395.996 384.997 397.552 381.671C398.059 380.587 398.838 379.651 399.69 378.81C401.548 376.976 404.206 375.475 406.686 376.29C406.789 376.324 406.892 376.362 406.995 376.4C407.342 376.527 407.691 376.656 408.056 376.635C408.529 376.607 409.024 376.184 408.902 375.725C408.866 375.59 408.782 375.472 408.695 375.362C407.162 373.409 404.154 372.806 401.986 374.017C399.407 375.458 396.786 377.155 395.414 379.772C393.181 384.031 395.004 389.412 398.086 393.104ZM439.169 327.403C439.056 327.566 439.085 327.792 439.112 328.009C439.144 328.266 439.174 328.509 438.963 328.613C438.191 328.994 437.267 328.955 436.444 328.703C434.198 328.013 432.691 325.951 431.42 323.975C430.677 322.819 429.937 321.592 429.817 320.222C429.697 318.853 430.397 317.312 431.716 316.925C433.186 316.494 434.627 317.587 435.772 318.606C437.063 319.755 438.382 320.94 439.181 322.472C439.98 324.005 440.157 325.985 439.169 327.403ZM434.285 322.274C434.602 322.582 434.775 322.996 434.949 323.41C435.119 323.818 435.291 324.226 435.599 324.533C435.989 324.922 436.582 325.097 437.121 324.981C436.111 323.418 434.941 321.958 433.634 320.633C433.285 320.738 433.256 321.256 433.466 321.554C433.594 321.735 433.772 321.868 433.951 322.002C434.066 322.088 434.182 322.175 434.285 322.274ZM241.975 463.508C241.85 465.559 242.007 467.936 243.649 469.172C244.196 468.867 244.159 468.085 244.09 467.462C243.666 463.627 244.856 459.931 246.054 456.211C246.911 453.548 247.772 450.872 248.048 448.124C248.129 447.327 247.916 446.236 247.115 446.205C246.515 446.182 246.128 446.815 245.886 447.364C243.644 452.458 242.312 457.952 241.975 463.508ZM401.242 389.52C403.094 390.339 405.148 391.175 407.087 390.586C407.858 390.352 408.544 389.907 409.219 389.467C409.216 390.6 408.242 391.552 407.156 391.875C406.07 392.199 404.902 392.026 403.795 391.786C402.565 391.52 401.061 390.765 401.242 389.52ZM254.704 484.086C255.176 483.244 255.257 482.245 255.327 481.282L255.886 473.613C256.16 469.848 256.435 466.07 256.189 462.304C256.158 461.829 256.11 461.329 255.833 460.942C255.556 460.555 254.97 460.348 254.59 460.635C254.311 460.847 254.241 461.229 254.192 461.576C253.585 465.931 253.261 470.325 253.222 474.722C253.193 477.91 253.339 481.204 254.704 484.086ZM246.32 477.494C245.829 477.909 245.011 477.544 244.74 476.961C244.47 476.377 244.579 475.696 244.695 475.064C245.909 468.444 247.286 461.855 248.824 455.303C248.862 455.139 248.904 454.969 249.01 454.838C249.415 454.337 250.234 454.841 250.521 455.417C251.226 456.83 250.888 458.517 250.536 460.056L246.744 476.592C246.669 476.922 246.579 477.276 246.32 477.494ZM259.452 477.788C259.24 480.271 259.613 482.762 259.984 485.226C260.116 486.103 260.748 487.269 261.54 486.87L263.085 470.351C263.148 469.679 263.19 468.934 262.774 468.403C262.357 467.872 261.302 467.894 261.169 468.555L260.03 474.22C259.792 475.402 259.554 476.587 259.452 477.788ZM418.968 427.16C414.57 424.896 409.218 424.003 404.649 425.9C401.237 427.317 391.593 433.437 390.309 441.281C389.45 446.532 389.459 451.898 391.297 456.968L391.593 457.763C392.14 459.199 393.884 460.849 394.859 459.662C392.012 454.515 391.48 448.143 393.434 442.596C395.388 437.049 399.797 432.417 405.24 430.191C406.386 429.722 407.582 429.354 408.814 429.237C411.306 429.001 413.793 429.809 416.021 430.95C420.816 433.407 426.758 437.493 429.04 442.374C431.241 447.08 432.861 452.692 430.87 457.49C428.879 462.288 415.796 465.759 415.796 465.759L417.244 468.401C417.244 468.401 424.567 466.956 429.04 463.699C447.816 450.023 423.175 429.326 418.968 427.16Z" fill="#00160A"/>
<path fill-rule="evenodd" clip-rule="evenodd" d="M87.051 359.637C80.4104 360.349 73.3768 358.813 68.1919 354.603C64.5198 351.622 61.9395 347.474 60.129 343.104C58.1633 338.36 57.0331 333.271 56.8059 328.14C56.7204 326.209 56.7663 324.242 57.3339 322.393C58.2681 319.352 60.5178 316.911 62.8143 314.708C67.7 310.023 73.4426 305.747 80.14 304.762C84.7037 304.091 89.346 305.006 93.8132 306.155C97.3217 307.058 100.826 308.123 103.981 309.902C110.955 313.834 115.787 321.333 116.486 329.307C117.185 337.282 116.325 342.566 105.563 352.474C99.9708 356.125 93.6915 358.924 87.051 359.637ZM98.7616 334.604C97.6845 334.943 96.611 335.544 95.4992 335.348C93.2276 334.949 92.8211 331.832 93.3255 329.582C94.7693 323.139 99.2602 317.449 105.191 314.548C103.848 312.113 100.282 311.934 97.7595 313.104C95.237 314.275 93.2651 316.384 90.8257 317.719C89.6118 318.383 88.1731 318.854 86.8525 318.44C84.6795 317.76 83.85 314.913 84.5614 312.75C85.2728 310.587 87.0483 308.973 88.7531 307.463C82.5755 307.68 76.4627 309.534 71.2056 312.786C67.0902 315.331 63.1865 319.505 63.7325 324.313C67.1353 321.574 71.1304 319.575 75.3625 318.494C76.2601 318.264 77.3868 318.149 77.9485 318.886C78.374 319.444 78.2518 320.247 77.9792 320.893C76.6265 324.102 72.6484 325.178 70.1809 327.634C69.8569 327.957 69.5462 328.329 69.4678 328.78C69.3141 329.662 70.1553 330.467 71.0391 330.615C71.9228 330.762 72.81 330.44 73.6483 330.124C75.3893 329.467 77.1303 328.811 78.8713 328.154C80.1316 327.678 81.6279 327.224 82.7487 327.971C83.9081 328.745 84.0174 330.503 83.3621 331.732C82.7068 332.962 81.5039 333.787 80.3464 334.563C77.5562 336.433 74.766 338.303 71.9758 340.173C69.6397 341.739 67.0225 343.85 67.2446 346.653C67.4536 349.292 70.3567 351.085 72.9984 350.916C75.6401 350.746 77.9649 349.131 79.9146 347.341C81.8643 345.55 83.6241 343.505 85.8882 342.134C87.3657 341.239 89.4738 340.742 90.674 341.984C91.6012 342.944 91.5118 344.487 91.1638 345.776C90.1608 349.489 87.4489 352.703 83.9575 354.317C86.7981 354.973 89.7605 355.096 92.6459 354.68C94.2915 354.442 95.9951 353.986 97.1851 352.825C98.3751 351.664 98.8359 349.62 97.8036 348.317C96.2638 346.373 96.3251 343.528 97.3088 341.251C98.2926 338.975 100.05 337.136 101.771 335.351C101.278 334.335 99.8386 334.266 98.7616 334.604ZM111.913 339.017C113.46 335.442 113.516 331.398 113.124 327.522C112.691 323.235 111.197 318.333 107.158 316.831C101.24 319.287 96.6733 324.767 95.3239 331.031C95.2105 331.557 95.1218 332.123 95.3288 332.62C95.5359 333.117 96.1513 333.48 96.6282 333.23C98.2644 332.373 100.277 331.886 101.94 332.69C103.603 333.493 104.413 336 103.066 337.264C101.578 338.661 100.05 340.114 99.2471 341.99C98.4443 343.866 98.56 346.295 100.072 347.666C101.207 348.697 101.21 350.72 100.077 351.754C103.298 350.813 105.594 348.043 107.682 345.417C109.279 343.41 110.894 341.372 111.913 339.017ZM74.8324 320.526C71.4818 321.916 68.2294 323.543 65.1075 325.39C64.3651 325.829 63.6148 326.294 63.072 326.964C62.339 327.87 62.0604 329.051 61.8339 330.194C61.1021 333.885 60.7248 337.86 62.275 341.289C62.7699 342.383 63.4462 343.384 64.1192 344.379C64.3178 344.673 64.5433 344.987 64.8838 345.086C65.2243 345.185 65.674 344.91 65.594 344.565C65.3475 343.5 66.1537 342.499 66.9493 341.75C71.6089 337.364 77.8863 334.846 82.0765 330.01C81.4409 329.257 80.2352 329.611 79.3288 329.998C77.1701 330.919 74.9443 331.684 72.6748 332.282C71.5041 332.591 70.1994 332.842 69.1309 332.273C67.5672 331.439 67.3126 329.158 68.1386 327.591C68.9646 326.023 70.5348 325.011 72.0491 324.09C73.5635 323.17 75.1521 322.209 76.0607 320.688C75.8954 320.255 75.2605 320.349 74.8324 320.526ZM86.2997 349.908C87.7804 348.718 89.3803 347.315 89.5418 345.422C89.6262 344.433 88.9915 343.222 88.0028 343.317C87.6989 343.346 87.4214 343.496 87.1593 343.653C82.8534 346.225 80.0196 351.255 75.1622 352.506C76.5348 353.12 77.966 353.603 79.43 353.947C79.866 354.05 80.3199 354.14 80.7584 354.049C81.2686 353.943 81.6956 353.607 82.1018 353.281C83.5011 352.156 84.9004 351.032 86.2997 349.908ZM90.3041 308.787C89.3459 309.846 88.3878 310.906 87.4296 311.966C86.6706 312.805 85.8564 313.913 86.2789 314.963C86.5901 315.736 87.5092 316.127 88.3404 316.063C89.1716 315.998 89.9287 315.573 90.6258 315.115C93.1098 313.486 95.3464 311.266 98.2451 310.614C96.2352 309.882 94.2253 309.149 92.2154 308.417C91.7969 308.264 91.3301 308.112 90.9183 308.282C90.6712 308.384 90.4834 308.588 90.3041 308.787Z" fill="#00160A"/>
<path fill-rule="evenodd" clip-rule="evenodd" d="M127.707 182.198C127.456 187.219 123.582 192.657 118.589 192.063C116.335 189.457 114.572 186.222 112.829 183.025C109.481 176.885 106.21 170.885 99.6918 169.746C93.29 168.627 87.3282 173.336 83.3411 178.468C77.5666 185.9 73.835 194.904 72.6587 204.242C71.9672 209.733 74.2186 217.346 79.719 216.742C86.0018 216.052 90.47 220.994 95.0145 226.021C99.2207 230.673 103.492 235.398 109.329 235.796C116.278 236.271 121.954 240.434 127.7 244.648C131.538 247.463 135.407 250.3 139.707 252.077C147.795 255.419 157.123 254.773 165.379 251.87C173.636 248.968 180.984 243.969 187.938 238.656L188.303 238.377C192.099 235.474 196.073 232.435 200.793 231.795C224.931 228.525 247.382 214.367 260.735 193.995C279.666 209.128 306.134 214.3 329.369 207.407C333.311 206.237 337.279 204.669 340.202 201.777C343.126 198.885 344.784 194.395 343.347 190.542C341.775 186.328 337.079 184.072 332.615 183.53C330.168 183.232 327.702 183.32 325.234 183.408H325.234H325.233H325.233H325.233C323.199 183.481 321.163 183.553 319.136 183.41C306.863 182.542 296.643 174.077 287.35 166.013C300.815 161.883 311.732 151.509 318.941 139.41C326.149 127.31 330.012 113.527 332.947 99.7522C334.492 92.5034 335.639 84.3373 331.498 78.1907C329.644 75.4397 326.926 73.4283 324.218 71.424C321.168 69.167 318.13 66.9189 316.353 63.6336C312.933 57.3144 306.267 53.5671 299.944 50.1535C283.398 41.2201 264.393 32.026 246.561 37.9919C239.615 40.3158 233.615 44.7688 227.765 49.176C218.05 56.4944 207.643 65.0792 205.793 77.1007C189.898 69.9892 169.333 75.6687 159.34 89.9301C157.054 93.1921 155.3 96.7893 153.547 100.383C151.483 104.614 149.422 108.839 146.5 112.507C134.762 107.159 122.803 102.298 110.664 97.9406C105.282 96.0087 98.8522 94.3015 94.2138 97.646C90.4947 100.328 89.3538 105.591 90.4455 110.044C91.5372 114.498 94.4516 118.273 97.577 121.628C104.357 128.906 112.502 134.909 121.461 139.231C121.75 139.371 122.041 139.51 122.333 139.649C125.138 140.985 128.022 142.359 129.89 144.812C131.952 147.52 132.08 152.052 129.189 153.849C124.919 156.503 124.132 162.459 125.008 167.41C125.307 169.102 125.746 170.778 126.184 172.451L126.184 172.451C127.029 175.676 127.872 178.892 127.707 182.198ZM243.645 208.674C232.884 219.973 217.742 226.583 202.259 228.516C186.776 230.448 170.966 227.936 156.176 222.965C160.155 222.963 163.031 217.754 160.915 214.385C152.764 223.887 140.337 228.338 128.496 232.401C117.798 236.073 105.011 233.406 97.1531 225.272C89.2951 217.137 87.1686 203.79 92.6948 193.921C95.0968 189.632 99.1709 185.898 104.069 185.477C108.967 185.056 114.242 189.118 113.787 194.013C111.062 193.539 108.193 195.854 108.081 198.618C118.626 197.483 128.539 191.44 134.38 182.589C136.396 179.533 137.929 176.206 139.462 172.875C140.492 170.639 141.522 168.401 142.7 166.244C145.632 160.874 149.841 155.755 155.675 153.909C160.357 152.429 165.418 153.25 170.257 154.085L191.754 157.791C193.363 156.402 190.757 154.176 188.677 153.742C181.958 152.338 175.145 151.473 168.332 150.607C162.015 149.805 155.696 149.003 149.452 147.771C136.473 145.21 123.428 140.526 113.982 131.266C120.39 127.579 125.265 121.315 127.265 114.199C127.67 112.759 126.706 110.394 125.536 111.326C124.201 115.946 122.753 120.765 119.406 124.218C116.059 127.672 110.184 129.189 106.396 126.226C101.478 122.38 96.3078 118.184 94.363 112.252C92.4182 106.319 95.4947 98.3517 101.695 97.6243C104.479 97.2978 107.199 98.4479 109.766 99.5729L135.659 110.923C143.365 114.301 151.187 117.713 159.511 118.939C165.356 119.799 171.301 119.558 177.203 119.314L193.938 118.624C194.622 118.596 195.324 118.564 195.954 118.295C197.635 117.578 198.205 115.524 198.576 113.735C203.067 92.0649 209.1 69.1966 225.423 54.2531C232.727 47.5663 241.826 42.8583 251.503 40.7581C261.042 38.6878 271.567 39.2964 279.779 44.5722C266.003 45.5862 252.625 51.3957 242.48 60.7705C238.217 56.2201 230.283 59.9396 226.883 65.1663C221.613 73.2684 221.708 84.5234 227.116 92.5347C231.668 99.2782 233.356 107.324 235.048 115.389C236.603 122.801 238.161 130.229 241.948 136.676C247.94 146.875 259.098 153.421 270.751 155.451C282.405 157.48 294.486 155.36 305.561 151.207C293.165 163.571 273.363 167.848 256.97 161.701C255.775 161.253 254.586 160.753 253.397 160.252L253.396 160.251L253.396 160.251L253.396 160.251L253.396 160.251C249.629 158.665 245.849 157.073 241.809 157.121C244.176 159.627 247.199 161.509 250.493 162.526C246.695 168.906 242.71 175.174 238.545 181.321C238.012 182.107 237.405 182.945 236.493 183.211C235.477 183.507 234.417 183.001 233.49 182.489C225.833 178.257 218.969 172.593 213.36 165.879L202.138 179.529C207.897 186.569 214.629 192.81 222.084 198.02C212.162 210.277 197.13 218.261 181.418 219.618C197.682 220.446 214.146 212.818 224.03 199.875C230.287 203.388 236.86 206.337 243.645 208.674ZM295.078 88.6448C298.671 84.7261 300.003 79.1289 299.696 73.8207C299.389 68.5126 297.604 63.4076 295.628 58.4714C300.775 57.8611 306.005 59.8033 310.106 62.9747C314.207 66.1461 317.287 70.4613 319.813 74.9879C322.876 80.4751 325.224 86.4083 326.242 92.6092C328.641 107.21 323.52 122.096 316.229 134.972C314.813 137.472 313.29 139.955 311.223 141.95C309.142 143.96 306.582 145.405 303.959 146.624C293.132 151.654 280.679 153.106 268.986 150.7C276.45 144.486 281.722 135.924 285.079 126.81C288.436 117.696 289.973 108.009 290.858 98.3366L290.863 98.2825C291.086 95.8435 291.32 93.2801 292.71 91.266C293.171 90.5992 293.74 90.0211 294.31 89.4426C294.569 89.1795 294.829 88.9164 295.078 88.6448ZM281.57 128.931C278.349 136.465 273.359 143.383 266.594 148.006C265.802 148.548 264.951 149.07 263.998 149.182C263.157 149.28 262.314 149.048 261.506 148.793C255.755 146.978 250.32 143.76 246.631 138.989C245.292 137.258 244.199 135.348 243.224 133.389C236.122 119.119 235.426 101.805 241.36 87.0113C241.644 86.3047 242.049 85.5113 242.796 85.3631C243.762 85.1714 244.503 86.1595 245.046 86.9813C249.478 93.6983 257.767 97.0989 265.807 97.451C273.847 97.8032 281.756 95.5181 289.38 92.9412C287.991 96.3389 287.637 100.04 287.286 103.707L287.286 103.712L287.285 103.717C287.242 104.175 287.198 104.633 287.152 105.09C286.335 113.243 284.791 121.397 281.57 128.931ZM279.933 58.9385C284.047 58.0033 288.847 57.746 291.991 60.56C293.006 61.469 293.76 62.6348 294.381 63.848C298.275 71.4569 296.75 81.4783 290.769 87.5845C283.855 94.6437 272.912 95.8075 263.067 94.9696C259.534 94.6689 255.901 94.1253 252.885 92.2611C248.983 89.8489 246.672 85.5985 244.535 81.5392C254.022 70.9386 266.061 62.0919 279.933 58.9385ZM313.207 186.906C311.916 190.165 310.613 193.468 310.19 196.948C309.768 200.428 310.318 204.162 312.434 206.957C294.871 207.928 277.024 202.513 262.963 191.945C267.497 185.528 271.078 178.439 273.551 170.981C274.529 168.036 278.258 166.807 281.286 167.489C284.074 168.117 286.414 169.905 288.697 171.649L288.977 171.863C289.08 171.941 289.183 172.02 289.286 172.098C296.762 177.774 305 182.35 313.207 186.906ZM190.482 231.412C187.712 234.531 184.402 237.119 181.02 239.561C173.962 244.657 166.265 249.289 157.686 250.77C145.114 252.939 131.531 247.517 123.909 237.285L151.332 227.056C151.988 226.811 152.668 226.562 153.368 226.602C153.763 226.624 154.143 226.738 154.524 226.851C154.778 226.927 155.032 227.002 155.291 227.052C156.171 227.218 157.059 227.072 157.951 226.925C158.506 226.834 159.063 226.742 159.62 226.725C161.673 226.664 163.559 227.602 165.426 228.53C165.899 228.765 166.372 229 166.846 229.218C174.117 232.562 182.501 232.021 190.482 231.412ZM150.887 114.084C150.694 113.651 150.898 113.154 151.102 112.727C156.718 100.965 164.147 90.0715 173.046 80.5492C179.306 89.2408 183.472 99.4293 185.095 110.017C185.42 112.133 185.069 115.06 182.944 115.324C172.761 116.594 162.399 116.421 152.263 114.814C151.727 114.729 151.109 114.579 150.887 114.084ZM189.242 113.358C187.145 101.83 182.792 90.7177 176.502 80.8328C181.826 78.0297 188.121 77.9839 194.138 78.0027C197.938 78.0146 202.086 78.1485 204.982 80.6091L197.47 102.774C196.195 106.537 194.903 110.406 195.064 114.376L190.316 114.452C190.146 114.455 189.972 114.456 189.816 114.391C189.436 114.232 189.316 113.763 189.242 113.358ZM250.341 170.082C251.602 167.936 252.804 165.644 252.932 163.158C258.613 165.713 264.87 166.979 271.097 166.834C272.075 166.811 272.04 168.318 271.639 169.21C270.427 171.909 269.213 174.611 267.809 177.216C266.369 179.89 264.734 182.453 263.1 185.013L259.185 191.15C258.649 191.99 258.096 192.849 257.3 193.448C255.162 195.055 252.112 194.282 249.673 193.186C245.628 191.369 241.904 188.838 238.726 185.744C243.14 180.956 247.041 175.696 250.341 170.082ZM103.425 175.384C105.307 177.282 106.538 179.715 107.737 182.104L102.09 182.909C100.208 183.177 98.2789 183.461 96.6159 184.381C94.9978 185.276 93.7499 186.712 92.6518 188.199C88.059 194.421 85.5135 202.129 85.4974 209.863C85.4916 212.656 82.1901 214.649 79.4881 213.941C76.7861 213.233 74.9504 210.549 74.4833 207.795C74.0163 205.041 74.6741 202.225 75.4991 199.556C78.4023 190.165 83.5957 181.295 91.2795 175.164C92.7475 173.993 94.3697 172.896 96.2243 172.6C98.8639 172.178 101.543 173.486 103.425 175.384ZM340.568 191.105C341.221 191.944 341.705 192.966 341.676 194.03C341.638 195.403 340.767 196.608 339.829 197.613C334.378 203.455 326 205.444 318.065 206.381C317.542 206.443 316.994 206.499 316.503 206.307C316.1 206.149 315.776 205.839 315.489 205.515C313.574 203.362 312.816 200.353 312.971 197.476C313.126 194.599 314.119 191.828 315.355 189.226C315.616 188.678 315.917 188.102 316.448 187.808C316.872 187.574 317.377 187.555 317.861 187.543L327.464 187.291C329.829 187.229 332.219 187.169 334.534 187.657C336.848 188.144 339.115 189.239 340.568 191.105ZM233.541 100.366C229.627 93.116 226.7 85.3345 224.864 77.3028L226.444 73.0802C228.4 69.2939 230.866 65.7713 233.753 62.6371C234.93 61.3606 236.968 61.2194 238.591 61.8345C240.214 62.4495 241.52 63.6725 242.78 64.8662L248.45 70.2378C248.618 70.3975 248.794 70.5699 248.851 70.7952C248.956 71.2194 248.606 71.6078 248.289 71.909C245.634 74.4334 243.275 77.2796 241.383 80.417C238.524 85.1593 236.778 90.4736 235.056 95.7363L233.541 100.366ZM248.031 59.645C259.575 53.4622 272.202 47.6442 285.224 49.0355C292.031 49.7629 298.543 52.4712 304.214 56.3077C287.97 52.1322 269.863 55.9837 256.725 66.4092C254.694 68.0206 251.647 69.7707 249.839 67.9129C249.375 67.436 249.072 66.7676 248.776 66.1165C248.302 65.0735 247.848 64.0746 246.787 63.977C245.775 63.8838 245.324 62.5103 245.754 61.5887C246.183 60.6672 247.135 60.125 248.031 59.645ZM216.318 172.731C218.597 174.921 221.106 176.853 223.609 178.781L233.723 186.571C230.609 189.316 227.561 192.137 224.585 195.031C217.499 190.831 211.174 185.351 206.008 178.936C208.836 175.99 211.551 172.936 214.144 169.782C214.552 170.946 215.429 171.877 216.318 172.731ZM151.29 151.662C145.964 155.822 140.458 160.201 137.529 166.291C136.957 167.481 136.484 168.734 136.012 169.984L136.012 169.984C135.008 172.642 134.008 175.291 132.063 177.314C131.2 177.061 130.861 176.044 130.651 175.17L128.624 166.741C128.351 165.604 128.076 164.435 128.231 163.276C128.386 162.122 128.955 161.071 129.513 160.049L135.459 149.184C135.592 148.942 135.729 148.693 135.942 148.517C136.468 148.08 137.246 148.219 137.91 148.382L151.29 151.662ZM237.803 188.987C241.434 192.721 245.948 195.592 250.869 197.297C251.79 196.431 253.568 196.908 253.931 198.119C252.238 200.316 250.379 202.386 248.374 204.304C247.48 205.161 246.046 204.98 244.838 204.703C238.94 203.349 233.259 201.055 228.074 197.934C227.728 197.725 227.337 197.428 227.372 197.024C227.395 196.753 227.608 196.542 227.809 196.358L235.088 189.654C235.851 188.951 237.079 188.243 237.803 188.987ZM330.736 95.3368C330.669 96.1584 330.553 97.0751 329.911 97.5918C329.906 91.1391 328.305 84.6935 325.292 78.9875C324.746 77.9525 324.153 76.941 323.494 75.9738C323.409 75.8494 323.323 75.725 323.237 75.6002C322.572 74.6404 321.892 73.6583 321.73 72.5124L329.53 80.6603C330.247 81.41 330.985 82.1921 331.325 83.1729C331.652 84.1187 331.574 85.1502 331.492 86.1477L330.736 95.3368ZM321.774 84.9823L320.008 82.7559C318.065 80.3065 315.681 77.6319 312.554 77.6284C310.739 77.6265 309.071 78.5556 307.496 79.4584L305.051 80.8609C304.383 81.244 303.697 81.6425 303.226 82.2518C301.867 84.009 302.858 86.5765 304.142 88.389C305.031 89.6431 306.096 90.8473 307.509 91.4509C309.337 92.2317 311.44 91.8863 313.357 91.3578C315.981 90.634 318.517 89.5899 320.89 88.2559C321.649 87.8293 322.487 87.2044 322.449 86.3347C322.426 85.8226 322.093 85.3839 321.774 84.9823ZM306.343 86.7007C306.039 86.2168 305.725 85.6999 305.72 85.1284C305.711 84.011 306.826 83.2612 307.807 82.7261L311.293 80.8247C311.82 80.5371 312.368 80.2431 312.968 80.2027C313.567 80.1623 314.233 80.4507 314.434 81.0165C315.029 82.6858 316.494 84.0174 318.212 84.4505C318.768 84.5907 318.947 85.3608 318.684 85.8707C318.421 86.3805 317.883 86.6786 317.369 86.9336C315.532 87.8453 313.611 88.5888 311.638 89.1517C310.847 89.3773 310.01 89.5747 309.21 89.3845C307.902 89.0734 307.059 87.8394 306.343 86.7007ZM281.544 103.912C278.086 104.314 277.428 110.548 279.034 113.873C279.364 114.557 279.881 115.262 280.635 115.357C281.923 115.521 282.635 113.931 282.92 112.664L282.927 112.634C283.303 110.964 284.98 103.511 281.544 103.912ZM263.712 112.089C264.403 110.477 264.634 108.669 264.37 106.935C264.247 106.129 264.004 105.31 263.466 104.698C262.927 104.086 262.037 103.73 261.27 104.006C260.576 104.256 260.139 104.935 259.811 105.596C258.65 107.928 258.188 110.602 258.498 113.188C258.642 114.391 260.158 115.049 261.308 114.668C262.459 114.288 263.235 113.203 263.712 112.089ZM273.905 108.398C274.441 107.954 275.118 108.761 275.336 109.424C276.052 111.6 276.645 113.817 277.11 116.06C277.405 117.477 277.648 118.95 277.334 120.363C276.892 122.356 275.377 123.977 273.62 125.015C271.862 126.053 269.862 126.591 267.89 127.117C267.369 127.256 266.714 127.355 266.377 126.933C266.092 126.576 266.233 126.016 266.558 125.693C266.877 125.378 267.321 125.232 267.748 125.092L267.773 125.083C270.848 124.073 274.133 122.25 274.849 119.094C275.243 117.359 274.764 115.616 274.283 113.865L274.283 113.865C273.845 112.27 273.405 110.67 273.622 109.064C273.655 108.819 273.714 108.556 273.905 108.398ZM252.433 101.3C251.623 100.178 252.272 98.4741 253.446 97.7427C254.62 97.0113 256.104 97.0212 257.476 97.1983C259.113 97.4098 260.724 97.8263 262.259 98.4352C262.586 98.5647 262.938 98.7298 263.082 99.0505C263.348 99.6446 262.659 100.295 262.008 100.294C261.484 100.294 261.009 100.042 260.539 99.7923C260.425 99.7319 260.312 99.6717 260.198 99.6153C257.636 98.3438 254.238 99.0808 252.433 101.3ZM281.965 100.913C283.183 100.711 284.474 100.992 285.497 101.682C285.925 101.971 286.537 101.486 286.54 100.97C286.542 100.454 286.157 100.02 285.752 99.7007C284.878 99.0135 283.791 98.6023 282.681 98.5396C281.965 98.4991 281.173 98.6376 280.711 99.1869C280.25 99.7361 280.389 100.767 281.081 100.958C281.327 101.027 281.586 100.98 281.841 100.935C281.882 100.928 281.924 100.92 281.965 100.913ZM266.853 132.551C267.195 132.357 267.648 132.695 267.699 133.085C267.75 133.475 267.527 133.849 267.273 134.149C265.996 135.656 263.796 136.12 261.853 135.766C259.91 135.413 258.168 134.369 256.529 133.267C255.759 132.749 254.999 132.213 254.252 131.662C253.478 131.09 252.653 130.39 252.56 129.432C252.468 128.474 253.695 127.508 254.396 128.168C256.118 129.79 257.88 131.439 260.022 132.442C262.165 133.446 264.792 133.713 266.853 132.551ZM229.969 140.233C222.793 124.633 219.799 107.132 221.381 90.0341C221.408 89.7419 221.445 89.429 221.638 89.208C221.911 88.8963 222.469 88.9093 222.727 89.2334C222.635 98.6391 222.547 108.101 224.083 117.381C225.618 126.661 228.878 135.842 234.831 143.125C235.009 143.343 235.189 143.559 235.37 143.776C236.394 145.004 237.427 146.242 238.007 147.723C234.136 147.648 231.587 143.75 229.969 140.233ZM237.008 69.7898C236.876 69.6464 236.721 69.5197 236.542 69.4423C236.024 69.2189 235.418 69.4479 234.964 69.7833C233.158 71.1205 233.151 74.2472 234.951 75.5925C235.83 74.8443 236.731 74.0669 237.246 73.0343C237.76 72.0017 237.792 70.6372 237.008 69.7898ZM252.584 86.2634C254.531 87.8437 256.749 89.0885 259.113 89.9266C266.74 92.631 275.31 90.933 282.67 87.569C283.794 87.0551 285.229 87.326 286.089 88.2146C281.363 91.5821 275.574 93.4331 269.771 93.4318C268.492 93.4315 267.214 93.3438 265.939 93.2324C263.33 93.0045 260.702 92.6703 258.249 91.7568C255.795 90.8433 253.504 89.2979 252.115 87.0785L252.584 86.2634ZM335.635 189.051C335.559 189.311 335.768 189.559 335.96 189.75L338.858 192.626C339.174 191.799 338.819 190.836 338.211 190.192C337.604 189.548 336.783 189.157 335.982 188.779C335.825 188.786 335.679 188.901 335.635 189.051Z" fill="#00160A"/>
<path fill-rule="evenodd" clip-rule="evenodd" d="M525.948 77.1917C529.498 78.422 532.842 75.2205 535.901 73.0393C540.635 69.6643 546.81 68.3881 552.494 69.6103C553.437 69.8131 554.425 70.1174 555.046 70.8553C555.613 71.5301 555.775 72.4505 555.866 73.3276C556.426 78.6968 555.083 84.245 552.131 88.7643C550.694 90.9629 548.895 92.9204 547.61 95.2111C546.326 97.5017 545.592 100.3 546.507 102.762C551.948 117.397 549.684 134.659 540.652 147.396C531.621 160.132 516.081 167.981 500.47 167.689C492.486 167.539 484.664 165.408 477.142 162.729C473.86 161.559 470.252 160.277 466.995 161.511C461.05 163.764 454.792 165.187 448.457 165.725C446.885 165.859 445.243 165.927 443.793 165.307C441.622 164.378 440.311 162.024 440.062 159.675C439.813 157.327 440.462 154.977 441.282 152.762C443.755 146.082 451.434 135.647 456.083 133.243C455.707 125.131 455.748 116.924 457.502 108.996C459.255 101.067 462.835 93.373 468.706 87.7629C471.131 85.4456 473.906 83.5169 476.813 81.8433C491.515 73.3785 509.918 71.6362 525.948 77.1917ZM503.558 76.5331C492.316 76.7962 481.372 81.3124 472.583 88.3286C470.003 90.3886 467.578 92.6773 465.641 95.3514C464.114 97.4594 462.907 99.7854 461.898 102.185C455.912 116.422 457.278 133.528 465.449 146.634C465.627 146.92 465.831 147.223 466.149 147.334C466.541 147.471 466.964 147.271 467.33 147.076C492.992 133.401 515.833 114.46 534.023 91.7741C534.456 91.2338 534.911 90.6063 534.818 89.9202C534.748 89.4054 534.381 88.9874 534.022 88.6115C526.26 80.4736 514.801 76.2699 503.558 76.5331ZM519.276 161.525C531.465 155.802 540.722 144.495 544.681 131.625C545.578 128.711 546.222 125.698 546.285 122.65C546.339 120.086 545.981 117.534 545.624 114.995C545.107 111.314 544.59 107.633 544.072 103.951C543.935 102.975 542.995 101.687 542.308 102.394C523.237 122.02 502.413 139.941 480.164 155.874C479.424 156.404 478.609 157.06 478.569 157.97C478.523 159.023 479.528 159.786 480.441 160.313C492.105 167.039 507.088 167.247 519.276 161.525ZM444.094 160.026C444.981 161.448 446.903 161.74 448.578 161.786C457.368 162.029 466.063 159.454 473.927 155.52C481.791 151.587 488.909 146.325 495.825 140.896C505.051 133.656 514.001 126.067 522.723 118.228C533.525 108.519 544.14 98.2208 551.232 85.5459C552.604 83.0942 553.87 80.4058 553.655 77.6045C553.441 74.8032 551.206 71.9751 548.399 72.0846C542.441 72.317 536.584 74.6076 532.049 78.478C531.147 79.2477 531.785 80.8863 532.895 81.3029C534.005 81.7196 535.242 81.3056 536.327 80.8268C537.411 80.348 538.541 79.7881 539.719 79.9191C541.519 80.1193 542.798 81.9623 542.905 83.7704C543.012 85.5786 542.213 87.3164 541.271 88.8634C539.527 91.7264 537.25 94.222 534.949 96.6598C514.496 118.329 490.901 137.028 465.134 151.992C462.813 153.34 460.465 154.662 457.968 155.643C456.658 156.158 455.156 156.572 453.878 155.983C451.781 155.017 451.613 152.074 452.242 149.853C453.187 146.519 455.227 143.505 457.972 141.39C457.452 139.925 456.932 138.46 456.412 136.996C449.637 141.323 444.882 148.685 443.723 156.64C443.556 157.788 443.48 159.042 444.094 160.026ZM463.359 149.975C463.407 149.824 463.319 149.666 463.234 149.532C462.359 148.141 461.484 146.751 460.609 145.36C460.213 144.731 459.447 144.018 458.853 144.465C456.713 146.077 455.182 148.477 454.621 151.096C454.511 151.613 454.446 152.19 454.728 152.637C455.251 153.469 456.502 153.284 457.428 152.952C459.401 152.245 461.302 151.336 463.091 150.243C463.202 150.176 463.32 150.098 463.359 149.975ZM539.5 83.7746C539.412 83.4134 538.982 83.2564 538.61 83.2402C537.483 83.1911 536.304 84.1182 536.376 85.2447C536.447 86.3713 538.122 87.0806 538.821 86.1948C539.033 85.9274 539.122 85.5865 539.206 85.2563C539.289 84.9291 539.373 84.6019 539.456 84.2748C539.498 84.1109 539.54 83.9389 539.5 83.7746Z" fill="#00160A"/>
</svg>
